<?xml version="1.0" encoding="utf-8"?>
<!-- Generator: Adobe Illustrator 26.5.0, SVG Export Plug-In . SVG Version: 6.00 Build 0)  -->
<svg version="1.1" id="Rolex_x5F_CPO_x5F_logo" xmlns="http://www.w3.org/2000/svg" xmlns:xlink="http://www.w3.org/1999/xlink"
	 x="0px" y="0px" viewBox="0 0 1271.066 640.638" style="enable-background:new 0 0 1271.066 640.638;" xml:space="preserve">
<g>
	<g>
		<path d="M529.811,181.156l-0.001-0.001c-0.586-0.551-1.495-0.542-2.071,0.015c-0.289,0.279-0.451,0.655-0.457,1.058
			c-0.005,0.402,0.146,0.782,0.426,1.067c3.129,3.231,5.725,7.318,7.934,12.493c8.346,19.99,1.239,38.652-18.561,48.709
			c-41.505,22.672-103.841,1.846-149.359-13.362c-4.613-1.542-9.064-3.029-13.308-4.409c-2.266-0.78-6.232-2.153-10.295-3.56
			c-4.638-1.605-9.4-3.254-11.896-4.111c-35.869-12.584-70.742-17.037-103.64-13.237c-43.832,4.455-84.479,27.201-108.994,60.928
			c-0.217-1.542-0.37-2.899-0.475-4.204c-2.781-28.682,13.124-56.766,40.52-71.547c43.483-23.614,94.871-18.163,130.323-9.434
			c21.2,5.221,43.802,15.109,65.658,24.671c14.322,6.266,27.85,12.184,40.4,16.553c37.143,12.93,76.247,22.852,110.583,8.037
			c0.736-0.322,1.089-1.162,0.802-1.911c-0.294-0.771-1.16-1.162-1.937-0.866c-8.262,3.157-17.211,5.087-26.594,5.736
			c-30.76,1.934-52.801-7.111-76.14-16.687l-4.264-1.746c-9.715-3.963-20.271-9.121-31.449-14.583
			c-34.516-16.864-77.471-37.853-130.266-40.555c-33.667-1.724-62.354,3.623-85.252,15.886
			c-29.039,15.023-48.289,42.862-50.24,72.648c-0.955,12.99,1.05,26.544,5.8,39.211c-1.914,4.076-3.58,8.134-4.947,12.053
			c-12.772,33.433-11.463,69.797,3.502,97.27c12.185,23.018,33.782,42.235,66.031,58.751c1.762,0.879,3.66,1.777,5.791,2.742
			c-3.097,7.065-3.359,15.247-0.708,22.526c4.714,13.422,17.61,25.257,39.406,36.151c-45.651,7.762-83.2-3.314-111.618-32.935
			c-0.559-0.574-1.466-0.61-2.066-0.084c-0.302,0.264-0.482,0.63-0.509,1.03c-0.026,0.399,0.104,0.786,0.364,1.082
			c29.354,34.495,74.496,47.627,127.131,36.989c1.726,0.728,3.414,1.422,5.046,2.08c33.721,13.031,80.05,22.498,121.63,22.497
			c21.881-0.001,42.452-2.623,59.167-8.728c9.774-3.57,21.892-10.819,26.929-18.966c5.811-9.401,4.598-20.274-3.169-28.377
			c-14.385-14.861-48.854-13.126-68.131-10.767c-32.12,4.468-63.457,12.925-93.762,21.104c-15.346,4.141-31.213,8.423-47.002,12.139
			c-0.328,0.082-0.656,0.159-0.984,0.235l-0.509,0.121c-26.072-10.447-41.262-22.077-46.433-35.555
			c-2.368-6.092-2.307-12.44,0.172-18.394c48.094,19.971,91.096,11.821,136.615,3.196c29.848-5.657,60.713-11.512,93.24-8.727
			c15.396,1.487,30.521,5.186,44.95,10.989c0.758,0.312,1.634-0.045,1.954-0.798c0.324-0.761-0.03-1.644-0.791-1.969
			c-5.345-2.281-10.174-4.121-14.764-5.623c-9.915-3.235-20.302-5.556-30.867-6.897c-31.249-4.096-62.495,1.167-92.719,6.254
			c-25.577,4.307-52.021,8.76-78.29,7.494c-18.465-0.765-36.641-4.88-54.034-12.232c3.27-3.69,7.48-6.838,12.221-9.128
			c17.885-8.702,40.535-9.863,69.25-3.544c0.937,0.209,1.603-0.402,1.776-1.111c0.174-0.706-0.138-1.553-1.081-1.808
			c-29.46-7.206-53.014-6.475-72.016,2.241c-6.145,2.931-11.212,6.686-15.07,11.165c-6.904-3.196-13.553-6.861-19.774-10.9
			c-22.165-13.709-37.818-30.847-46.525-50.938c-9.055-20.893-10.075-43.918-3.033-68.443c1.105-4.063,2.431-8.132,3.944-12.109
			c2.599,3.876,5.468,7.556,8.538,10.949c21.56,23.878,55.307,38.248,92.598,39.423c41.61,0.583,71.422-8.6,88.591-27.301
			c9.653-10.486,13.244-24.937,9.146-36.826c-3.037-8.254-8.166-15.094-15.244-20.329c-6.278-4.644-14.094-8.038-23.228-10.088
			c-15.152-3.399-33.945-2.985-51.565,1.138c-14.368,3.435-27.591,9.743-38.239,18.244c-4.282,3.441-7.525,6.62-10.207,10.004
			c-0.5,0.634-0.412,1.542,0.199,2.066c0.627,0.54,1.575,0.467,2.111-0.157c5.277-6.046,12.556-11.511,21.635-16.243
			c22.623-11.833,55.103-14.574,78.985-6.664c14.678,4.875,25.116,15.322,27.242,27.263c1.859,10.44-2.816,20.735-13.162,28.985
			c-11.536,9.027-27.06,14.2-48.855,16.278c-38.753,3.88-74.788-6.098-98.877-27.38c-8.744-7.584-15.946-17.227-20.838-27.9
			c12.828-22.081,32.402-40.061,56.621-52.005c23.545-11.612,50.423-17.084,77.719-15.832c19.018,0.745,39.03,4.16,59.48,10.15
			c0,0,29.792,8.774,29.961,8.824c4.246,1.197,8.503,2.417,12.771,3.64c36.072,10.339,73.372,21.02,111.463,19.879
			c14.886-0.45,29.412-3.752,40.904-9.3c13.796-6.66,23.125-16.512,26.979-28.491C547.048,210.976,542.108,192.808,529.811,181.156z
			 M426.196,507.199c0.549,5.252-0.933,18.127-26.497,24.239c-50.117,12.17-114.562,1.813-155.412-10.972
			c12.415-2.673,24.921-5.819,37.034-8.867c14.532-3.657,29.56-7.438,44.438-10.402c24.543-4.903,46.743-8.979,69.895-9.187
			C415.002,492.41,425.277,497.52,426.196,507.199z"/>
		<path d="M1166.609,484.513l-0.002,0.003c-28.416,29.617-65.965,40.695-111.613,32.93c21.797-10.898,34.693-22.731,39.404-36.141
			c2.647-7.292,2.383-15.475-0.713-22.531c2.07-0.931,3.97-1.829,5.795-2.742c32.249-16.515,53.848-35.732,66.029-58.747
			c14.965-27.483,16.272-63.848,3.503-97.261c-1.396-3.998-3.062-8.057-4.951-12.067c4.753-12.673,6.76-26.227,5.805-39.208
			c-1.949-29.791-21.2-57.627-50.231-72.644c-29.606-15.861-62.712-18.815-85.273-17.313
			c-65.554,4.369-109.259,26.413-147.819,44.861c-25.473,12.187-49.532,23.982-77.504,30.151
			c-25.915,5.716-68.08,1.783-76.291-24.809c-2.782-9.013,0.742-19.722,5.663-25.642c0.446-0.537,0.354-1.492-0.191-1.964
			c-0.577-0.498-1.548-0.464-2.036,0.07c-7.069,7.699-12.425,22.001-4.254,36.969c6.381,11.688,18.326,19.319,35.505,22.679
			c17.354,3.395,34.642,1.376,43.401-0.131c24.758-4.257,45.831-13.387,70.232-23.958c29.277-12.684,61.045-29.045,109.265-38.415
			c50.93-9.898,91.441-4.468,120.927,12.516c27.85,16.052,43.466,43.418,40.756,71.426c-0.11,1.29-0.265,2.648-0.479,4.202
			c-24.046-33.047-64.658-55.58-108.916-60.37c-54.623-5.912-87.066,1.958-148.322,28.604c-41.235,17.937-71.679,26.949-114.4,23.24
			c-16.249-1.412-30.128-5.298-42.43-11.88c-0.328-0.174-0.711-0.197-1.079-0.062c-0.413,0.152-0.756,0.489-0.92,0.907
			c-0.268,0.709,0.045,1.484,0.76,1.885c16.322,9.139,37.218,14.431,60.427,15.304c26.806,1.003,55.566-3.752,85.538-14.147
			c5.177-1.795,10.45-3.681,15.551-5.504c35.321-12.627,74.687-25.688,117.729-23.479c42.705,2.187,102.185,21.379,129.446,68.258
			c-4.893,10.676-12.094,20.319-20.841,27.903c-24.095,21.28-60.13,31.267-98.878,27.377c-21.782-2.074-37.306-7.248-48.853-16.277
			c-10.347-8.251-15.021-18.545-13.161-28.985c2.127-11.94,12.566-22.386,27.244-27.261c23.884-7.914,56.361-5.172,78.979,6.666
			c9.064,4.715,16.346,10.178,21.635,16.229c0.259,0.308,0.622,0.495,1.022,0.525c0.393,0.036,0.782-0.095,1.099-0.362
			c0.592-0.526,0.679-1.432,0.193-2.069c-2.688-3.387-5.934-6.565-10.215-10.001c-10.644-8.5-23.864-14.809-38.234-18.245
			c-17.618-4.121-36.41-4.535-51.562-1.135c-9.135,2.05-16.949,5.443-23.228,10.086c-7.078,5.234-12.207,12.073-15.248,20.336
			c-4.098,11.89-0.506,26.343,9.149,36.82c17.175,18.706,46.981,27.864,88.602,27.295c37.28-1.175,71.025-15.543,92.58-39.418
			c3.05-3.357,5.92-7.038,8.54-10.949c1.537,4.038,2.863,8.106,3.947,12.113c7.042,24.519,6.021,47.544-3.033,68.438
			c-8.707,20.093-24.362,37.23-46.538,50.943c-6.198,4.028-12.846,7.694-19.762,10.899c-3.87-4.493-8.94-8.249-15.083-11.169
			c-19.004-8.715-42.558-9.448-72.017-2.238c-0.931,0.253-1.241,1.099-1.066,1.804c0.175,0.708,0.837,1.318,1.774,1.108
			c28.718-6.309,51.37-5.151,69.253,3.545c4.736,2.293,8.945,5.443,12.214,9.136c-17.379,7.349-35.552,11.462-54.031,12.227
			c-26.261,1.262-52.719-3.189-78.298-7.494c-30.221-5.086-61.473-10.347-92.708-6.254c-10.557,1.342-20.94,3.662-30.864,6.896
			c-4.631,1.519-9.463,3.36-14.771,5.628c-0.367,0.154-0.651,0.445-0.801,0.819c-0.148,0.371-0.146,0.776,0.008,1.14
			c0.153,0.37,0.442,0.657,0.813,0.809c0.372,0.153,0.781,0.15,1.142-0.001c14.419-5.804,29.544-9.502,44.947-10.993
			c32.53-2.778,63.398,3.07,93.248,8.728c45.516,8.626,88.519,16.776,136.61-3.193c2.481,5.945,2.545,12.296,0.178,18.399
			c-5.17,13.468-20.361,25.098-46.438,35.55l-0.435-0.104c-0.351-0.083-0.703-0.166-1.064-0.261
			c-15.789-3.715-31.663-7.999-47.015-12.142c-30.299-8.177-61.628-16.631-93.749-21.096c-19.269-2.357-53.739-4.093-68.125,10.766
			c-7.762,8.095-8.976,18.969-3.167,28.377c5.041,8.152,17.157,15.401,26.929,18.969c16.724,6.105,37.283,8.728,59.17,8.728
			c41.58-0.002,87.919-9.471,121.631-22.506c1.632-0.652,3.317-1.349,5.045-2.075c11.92,2.41,23.451,3.603,34.506,3.602
			c37.759-0.002,69.92-13.902,92.627-40.587c0.54-0.643,0.472-1.572-0.157-2.119C1168.063,483.909,1167.16,483.945,1166.609,484.513
			z M844.929,507.197c0.917-9.674,11.192-14.782,30.524-15.184c23.174,0.208,45.371,4.284,69.91,9.188
			c14.878,2.964,29.905,6.744,44.438,10.401c12.113,3.048,24.62,6.194,37.036,8.867c-40.852,12.785-105.294,23.143-155.412,10.973
			h-0.002C845.861,525.33,844.38,512.454,844.929,507.197z"/>
	</g>
	<g>
		<path d="M772.354,530.745v-17.664h6.341c6.644,0,10.078,3.057,10.078,8.832c0,5.775-3.434,8.832-10.078,8.832H772.354z
			 M765.983,536.059h12.637c9.7,0,16.94-4.069,16.94-14.146c0-10.075-7.239-14.146-16.94-14.146h-12.637V536.059z M731.043,536.059
			h27.011v-5.464h-20.637v-6.156h12.865v-5.467h-12.865v-5.739h20.523v-5.467h-26.898V536.059z M715.538,536.059h6.371v-28.293
			h-6.371v19.958l-17.515-19.958h-6.371v28.293h6.371v-19.955L715.538,536.059z M663.578,507.766h-3.736l-8.224,20.146
			l-6.715-20.146h-6.563l9.203,28.293h6.641l7.509-18.257l7.584,18.257h6.602l9.242-28.293h-6.602l-6.677,20.146L663.578,507.766z
			 M618.073,531.574c-5.772,0-10.188-3.434-10.188-9.661c0-6.227,4.416-9.661,10.188-9.661c5.775,0,10.191,3.434,10.191,9.661
			C628.264,528.14,623.848,531.574,618.073,531.574 M618.073,537.005c9.323,0,16.979-5.242,16.979-15.092
			c0-9.85-7.656-15.089-16.979-15.089c-9.32,0-16.976,5.239-16.976,15.089C601.097,531.763,608.753,537.005,618.073,537.005
			 M595.311,518.973h-16.182v5.467h16.182V518.973z M548.122,536.059h27.011v-5.464h-20.64v-6.156h12.868v-5.467h-12.868v-5.739
			h20.526v-5.467h-26.898V536.059z M516.65,520.634v-7.554h8.982c3.587,0,5.434,1.359,5.434,3.739c0,2.416-1.847,3.814-5.434,3.814
			H516.65z M520.65,525.91c4.566,0,6.868,1.587,9.096,4.341l4.715,5.808h7.883l-6.638-8.224c-1.85-2.263-3.47-3.356-5.018-3.883
			v-0.078c3.47-0.563,7.203-3.239,7.203-7.808c0-5.961-5.467-8.299-11.844-8.299h-15.772v28.293h6.374V525.91H520.65z
			 M481.935,513.081h9.551c3.698,0,5.509,1.512,5.509,4.23s-1.811,4.266-5.509,4.266h-9.551V513.081z M491.749,526.892
			c7.018,0,12.033-2.79,12.033-9.581c0-6.793-5.015-9.545-12.033-9.545h-16.185v28.293h6.371v-9.167H491.749z"/>
		<path d="M747.544,483.581v-17.664h6.341c6.644,0,10.078,3.057,10.078,8.832c0,5.772-3.434,8.832-10.078,8.832H747.544z
			 M741.173,488.896h12.637c9.7,0,16.94-4.072,16.94-14.146c0-10.078-7.239-14.149-16.94-14.149h-12.637V488.896z M706.234,488.896
			h27.011v-5.467h-20.64v-6.156h12.868v-5.467h-12.868v-5.739h20.526V460.6h-26.898V488.896z M697.1,460.6h-6.371v28.293h6.371
			V460.6z M657.597,488.896h6.374v-11.622h13.395v-5.467h-13.395v-5.739h20.676V460.6h-27.05V488.896z M648.463,460.6h-6.371v28.293
			h6.371V460.6z M616.964,488.896h6.371v-22.829h12.377V460.6h-31.164v5.467h12.416V488.896z M578.659,473.468v-7.551h8.985
			c3.584,0,5.434,1.359,5.434,3.736c0,2.416-1.85,3.814-5.434,3.814H578.659z M582.662,478.746c4.566,0,6.868,1.584,9.096,4.338
			l4.715,5.811h7.883l-6.641-8.224c-1.847-2.266-3.47-3.359-5.015-3.886v-0.075c3.47-0.566,7.203-3.242,7.203-7.811
			c0-5.961-5.47-8.299-11.847-8.299h-15.769v28.296h6.371v-10.149H582.662z M537.349,488.896h27.011v-5.467h-20.64v-6.156h12.868
			v-5.467H543.72v-5.739h20.526V460.6h-26.898V488.896z M517.837,489.65c4.075,0,8.263-1.057,10.829-2.413v-6.147
			c-2.452,1.698-6.943,3.018-10.715,3.018c-6.188,0-10.793-3.096-10.793-9.398s4.605-9.398,10.793-9.398
			c3.772,0,8.263,1.32,10.715,3.021v-6.15c-2.566-1.356-6.754-2.413-10.829-2.413c-9.697,0-17.464,4.901-17.464,14.94
			S508.14,489.65,517.837,489.65"/>
	</g>
	<path d="M635.567,230.725c16.504,0,29.89,4.218,29.89,9.406c0,5.199-13.386,9.395-29.89,9.395c-16.514,0-29.901-4.196-29.901-9.395
		C605.667,234.942,619.053,230.725,635.567,230.725 M570.146,146.556c0.82,0,1.607-0.129,2.373-0.324l27.128,92.258h0.011
		c3.031,10.301,18.024,18.111,36.06,18.111c18.046,0,33.029-7.81,36.06-18.111h0.011l27.107-92.183
		c0.669,0.14,1.37,0.248,2.082,0.248c5.264,0,9.535-4.272,9.535-9.557c0-5.253-4.272-9.535-9.535-9.535
		c-5.264,0-9.557,4.282-9.557,9.535c0,3.808,2.233,7.065,5.426,8.597l-31.432,67.395l5.059-90.813h0.216
		c5.253,0,9.535-4.261,9.535-9.525c0-5.275-4.282-9.546-9.535-9.546c-5.275,0-9.546,4.272-9.546,9.546
		c0,4.347,2.923,8.004,6.882,9.158l-20.915,88.753l-10.086-97.814c4.628-0.68,8.176-4.638,8.176-9.438
		c0-5.253-4.272-9.546-9.535-9.546c-5.275,0-9.546,4.293-9.546,9.546c0,4.811,3.592,8.802,8.23,9.438l-10.075,97.641l-20.872-88.569
		c4.013-1.133,6.968-4.789,6.968-9.169c0-5.275-4.272-9.546-9.546-9.546c-5.264,0-9.535,4.272-9.535,9.546
		c0,5.264,4.271,9.525,9.535,9.525h0.14l5.048,90.77l-31.497-67.471c3.063-1.586,5.178-4.779,5.178-8.478
		c0-5.253-4.271-9.535-9.546-9.535c-5.264,0-9.535,4.282-9.535,9.535C560.611,142.285,564.882,146.556,570.146,146.556"/>
	<g>
		<path d="M548.497,377.738c-1.584,2.371-3.567,4.476-5.861,6.182c-3.756,2.969-8.054,4.72-12.607,4.908
			c-0.886,0.1-1.784,0.144-2.692,0.144s-1.806-0.044-2.692-0.144c-4.564-0.188-8.852-1.939-12.607-4.908
			c-2.304-1.706-4.287-3.811-5.861-6.182c-5.284-7.29-8.586-17.538-8.586-28.904c0-10.68,2.925-20.374,7.644-27.542
			c2.637-4.708,6.802-8.464,11.876-10.658c0.033-0.022,0.078-0.044,0.122-0.055c0.244-0.111,0.476-0.211,0.731-0.277
			c0.665-0.288,1.363-0.532,2.05-0.731c2.326-0.687,4.786-1.052,7.323-1.052c2.548,0,5.008,0.366,7.323,1.052
			c0.687,0.199,1.385,0.443,2.05,0.709c0.255,0.089,0.487,0.188,0.742,0.299c0.033,0.022,0.066,0.033,0.111,0.055
			c5.063,2.194,9.24,5.949,11.876,10.658c4.731,7.179,7.644,16.873,7.644,27.542C557.083,360.201,553.781,370.449,548.497,377.738
			 M527.336,298.537c-28.095,0-50.884,22.822-50.884,50.197c0,27.409,22.789,50.208,50.884,50.208
			c28.095,0,50.884-22.8,50.884-50.208C578.221,321.359,555.432,298.537,527.336,298.537"/>
		<path d="M679.031,359.197h-7.068v14.159c-0.211,8.464-7.135,15.289-15.654,15.289c-0.033,0-0.078-0.011-0.1-0.011v0.022h-21.57
			h-8.176v-79.5H640.1v-7.09h-13.638h-1.507h-34.023v7.09h13.649v79.5h-13.649v7.09h81.029h5.982h0.576h0.51v-0.022h0.033v-23.132
			h-0.033V359.197z"/>
		<path d="M786.517,302.103h-0.1h-0.476h-21.803h-70.261v7.09h13.383v79.522h-13.383v7.079v0.011h70.261h15.765h6.038h0.476h0.1
			h0.476v-23.11v-10.613h-7.09v11.156h-0.011c-0.1,8.575-7.079,15.488-15.676,15.488h-0.078v0.022h-25.259v-0.022h-9.483h-0.266
			v-38.21v-1.263h7.09c0.066,0,0.122,0.011,0.188,0.011h3.955c6.337,0.066,11.466,5.207,11.466,11.555
			c0,0.089-0.011,0.177-0.011,0.255h0.011v3.678v1.507h6.459v-0.964v-16.042v-0.044v-5.75v-0.044v-16.042v-0.332h-6.448v4.542
			h-0.011c0,0.089,0.011,0.177,0.011,0.266c0,6.348-5.129,10.879-11.477,10.935h-4.143h-4.409h-2.681v-33.59h0.266h20.174h0.343
			h14.38c8.564,0.033,15.499,6.946,15.599,15.488h0.011v9.627h7.09v-9.073v-23.088v-0.044H786.517z"/>
		<path d="M908.017,389.004c-6.802-0.177-8.398-2.282-13.649-8.298l-31.02-38.598l20.507-24.506v0.022
			c5.528-6.315,7.035-8.464,14.114-8.597h4.376h0.964v-6.847h-0.964h-20.152h-0.942h-14.79h-0.942v6.847h0.942h7.367v0.011h0.011
			c1.806,0,3.246,1.44,3.246,3.213c0,0.698-0.233,1.341-0.62,1.861l-18.169,21.681l-14.291-17.77l-2.991-3.767
			c-0.432-0.554-0.731-1.241-0.731-2.005c0-1.773,1.44-3.213,3.213-3.224h8.132v-6.847h-14.458h-21.116h-11.71v6.847h2.238
			c6.038,0.288,7.766,2.349,12.519,7.777l27.442,34.155l-24.705,29.502l-0.011-0.044c-5.528,6.304-7.024,8.453-14.136,8.586h-4.31
			h-1.462v6.836h1.462h23.398h1.462h12.663h1.462v-6.836h-1.462h-8.486v-0.022c-0.011,0-0.011,0.011-0.022,0.011
			c-1.784,0-3.224-1.44-3.224-3.235c0-0.753,0.288-1.44,0.72-1.994l21.958-26.212l18.247,22.722l2.77,3.479
			c0.432,0.565,0.709,1.241,0.709,2.005c0,1.784-1.44,3.224-3.224,3.224c0,0,0,0-0.011,0v0.011h-8.741v6.824h0.055v0.022h50.917
			v-6.836H908.017z"/>
		<path d="M416.705,343.234h-22.811v-34.266h22.8c9.827,0.388,17.67,7.201,17.67,17.117
			C434.365,336.011,426.521,342.813,416.705,343.234 M460.399,388.557l-6.204-18.003c-2.892-8.01-4.952-11.61-9.483-15.754
			c-2.98-2.659-7.146-3.944-10.215-4.83c11.511-1.839,20.296-11.843,20.296-23.863c0-13.328-10.802-24.151-24.162-24.151
			c-0.133,0-0.288,0.011-0.443,0.011v-0.011H393.85h-21.88h-13.173v7.035h13.173v79.611h-13.416v7.079h35.108h13.66v-7.079H393.85
			v-38.243h10.447c0.343,0,0.654,0.022,0.975,0.022h2.127c3.335,0.133,6.226,0.62,8.841,1.374c2.415,0.609,4.974,1.451,6.68,2.548
			c2.315,1.496,4.764,3.578,6.924,7.29c0.576,0.975,1.075,1.95,1.551,2.958c3.977,7.489,6.37,17.87,9.018,31.087h16.108v0.011
			h14.524v-7.09H460.399z"/>
	</g>
</g>
</svg>
