<svg xmlns="http://www.w3.org/2000/svg" version="1.1" xmlns:xlink="http://www.w3.org/1999/xlink" xmlns:svgjs="http://svgjs.dev/svgjs" width="1500" height="1500" viewBox="0 0 1500 1500"><rect width="1500" height="1500" fill="#ffffff"></rect><g transform="matrix(0.6666666666666666,0,0,0.6666666666666666,250.0006562499999,187.66666666666674)"><svg viewBox="0 0 320 360" data-background-color="#ffffff" preserveAspectRatio="xMidYMid meet" height="1687" width="1500" xmlns="http://www.w3.org/2000/svg" xmlns:xlink="http://www.w3.org/1999/xlink"><g id="tight-bounds" transform="matrix(1,0,0,1,-0.00020999999998139174,0)"><svg viewBox="0 0 320 360" height="360" width="320"><g><svg></svg></g><g><svg viewBox="0 0 320 360" height="360" width="320"><g><path transform="translate(-17.77778,2.22222) scale(3.55556,3.55556)" d="M95 52c0-12.871-5.692-24.431-14.682-32.318-7.887-8.99-19.447-14.682-32.318-14.682-23.71 0-43 19.29-43 43 0 12.868 5.69 24.426 14.677 32.313 7.887 8.993 19.449 14.687 32.323 14.687 0.084 0 0.166-0.006 0.25-0.006 0.084 0 0.166 0.006 0.25 0.006 23.472 0 42.5-19.028 42.5-42.5 0-0.084-0.006-0.166-0.006-0.25 0-0.084 0.006-0.166 0.006-0.25zM21.828 73.371c-4.245-5.978-6.77-13.259-6.822-21.121 0.135-20.511 16.732-37.109 37.244-37.244 7.862 0.052 15.144 2.577 21.121 6.822 6.853 6.645 11.129 15.93 11.129 26.172 0 20.126-16.374 36.5-36.5 36.5-10.242 0-19.527-4.276-26.172-11.129zM6 48c0-23.159 18.841-42 42-42 9.858 0 18.926 3.422 26.1 9.13-6.463-3.888-14.024-6.13-22.1-6.13-23.71 0-43 19.29-43 43 0 8.074 2.241 15.633 6.127 22.095-5.706-7.172-9.127-16.239-9.127-26.095zM52 89c-10.08 0-19.227-4.055-25.905-10.615 6.174 4.469 13.743 7.115 21.905 7.115 20.678 0 37.5-16.822 37.5-37.5 0-8.162-2.646-15.731-7.115-21.905 6.56 6.678 10.615 15.825 10.615 25.905 0 20.402-16.598 37-37 37z" fill="#50a060" fill-rule="nonzero" stroke="none" stroke-width="1" stroke-linecap="butt" stroke-linejoin="miter" stroke-miterlimit="10" stroke-dasharray="" stroke-dashoffset="0" font-family="none" font-weight="none" font-size="none" text-anchor="none" style="mix-blend-mode: normal" data-fill-palette-color="tertiary"></path></g><g transform="matrix(1,0,0,1,64,117.98673441289246)"><svg viewBox="0 0 192 124.02653117421508" height="124.02653117421508" width="192"><g><svg viewBox="0 0 192 124.02653117421508" height="124.02653117421508" width="192"><g transform="matrix(1,0,0,1,0,76.65337196332317)"><svg viewBox="0 0 192 47.37315921089192" height="47.37315921089192" width="192"><g id="textblocktransform"><svg viewBox="0 0 192 47.37315921089192" height="47.37315921089192" width="192" id="textblock"><g><svg viewBox="0 0 192 47.37315921089192" height="47.37315921089192" width="192"><g transform="matrix(1,0,0,1,0,0)"><svg width="192" viewBox="4.35 -35.83 179.94 44.41" height="47.37315921089192" data-palette-color="#50a060"><path d="M35.4-17.9L35.4-17.9Q35.4-13.88 34.13-10.58 32.85-7.28 30.53-4.93 28.2-2.58 24.95-1.29 21.7 0 17.75 0L17.75 0 4.35 0 4.35-35.83 17.75-35.83Q21.7-35.83 24.95-34.54 28.2-33.25 30.53-30.89 32.85-28.53 34.13-25.23 35.4-21.93 35.4-17.9ZM30.43-17.9L30.43-17.9Q30.43-21.2 29.53-23.8 28.63-26.4 26.98-28.2 25.33-30 22.98-30.95 20.63-31.9 17.75-31.9L17.75-31.9 9.22-31.9 9.22-3.93 17.75-3.93Q20.63-3.93 22.98-4.88 25.33-5.83 26.98-7.61 28.63-9.4 29.53-12 30.43-14.6 30.43-17.9ZM59.9-16.2L59.9 0 57.92 0Q57.27 0 56.87-0.2 56.47-0.4 56.35-1.05L56.35-1.05 55.85-3.4Q54.85-2.5 53.9-1.79 52.95-1.07 51.9-0.59 50.85-0.1 49.66 0.15 48.47 0.4 47.02 0.4L47.02 0.4Q45.55 0.4 44.26-0.01 42.97-0.43 42.02-1.25 41.07-2.08 40.51-3.34 39.95-4.6 39.95-6.33L39.95-6.33Q39.95-7.83 40.77-9.21 41.6-10.6 43.44-11.68 45.27-12.75 48.25-13.44 51.22-14.13 55.52-14.23L55.52-14.23 55.52-16.2Q55.52-19.15 54.26-20.66 53-22.18 50.52-22.18L50.52-22.18Q48.9-22.18 47.79-21.76 46.67-21.35 45.86-20.84 45.05-20.33 44.46-19.91 43.87-19.5 43.3-19.5L43.3-19.5Q42.85-19.5 42.51-19.74 42.17-19.98 41.97-20.33L41.97-20.33 41.17-21.75Q43.27-23.78 45.7-24.78 48.12-25.78 51.07-25.78L51.07-25.78Q53.2-25.78 54.85-25.08 56.5-24.38 57.62-23.13 58.75-21.88 59.32-20.1 59.9-18.32 59.9-16.2L59.9-16.2ZM48.35-2.73L48.35-2.73Q49.52-2.73 50.5-2.96 51.47-3.2 52.34-3.64 53.2-4.08 53.98-4.7 54.77-5.33 55.52-6.13L55.52-6.13 55.52-11.4Q52.45-11.3 50.3-10.91 48.15-10.53 46.8-9.9 45.45-9.28 44.84-8.43 44.22-7.58 44.22-6.53L44.22-6.53Q44.22-5.53 44.55-4.8 44.87-4.08 45.42-3.61 45.97-3.15 46.72-2.94 47.47-2.73 48.35-2.73ZM87.4-25.33L73.27 7.48Q73.05 7.98 72.71 8.28 72.37 8.58 71.67 8.58L71.67 8.58 68.37 8.58 73-1.48 62.55-25.33 66.4-25.33Q66.97-25.33 67.3-25.04 67.62-24.75 67.77-24.4L67.77-24.4 74.55-8.45Q74.77-7.9 74.93-7.35 75.1-6.8 75.22-6.23L75.22-6.23Q75.4-6.8 75.57-7.35 75.75-7.9 75.97-8.47L75.97-8.47 82.55-24.4Q82.7-24.8 83.06-25.06 83.42-25.33 83.85-25.33L83.85-25.33 87.4-25.33ZM99.12 0.4L99.12 0.4Q96.12 0.4 94.51-1.28 92.89-2.95 92.89-6.1L92.89-6.1 92.89-21.6 89.84-21.6Q89.44-21.6 89.17-21.84 88.89-22.08 88.89-22.58L88.89-22.58 88.89-24.35 93.04-24.88 94.07-32.7Q94.12-33.08 94.39-33.31 94.67-33.55 95.09-33.55L95.09-33.55 97.34-33.55 97.34-24.83 104.59-24.83 104.59-21.6 97.34-21.6 97.34-6.4Q97.34-4.8 98.12-4.03 98.89-3.25 100.12-3.25L100.12-3.25Q100.82-3.25 101.33-3.44 101.84-3.63 102.22-3.85 102.59-4.08 102.86-4.26 103.12-4.45 103.32-4.45L103.32-4.45Q103.67-4.45 103.94-4.03L103.94-4.03 105.24-1.9Q104.09-0.83 102.47-0.21 100.84 0.4 99.12 0.4ZM120.34-25.73L120.34-25.73Q123.12-25.73 125.35-24.8 127.59-23.88 129.15-22.18 130.72-20.48 131.55-18.06 132.39-15.65 132.39-12.68L132.39-12.68Q132.39-9.68 131.55-7.28 130.72-4.88 129.15-3.18 127.59-1.48 125.35-0.56 123.12 0.35 120.34 0.35L120.34 0.35Q117.57 0.35 115.33-0.56 113.09-1.48 111.52-3.18 109.94-4.88 109.09-7.28 108.24-9.68 108.24-12.68L108.24-12.68Q108.24-15.65 109.09-18.06 109.94-20.48 111.52-22.18 113.09-23.88 115.33-24.8 117.57-25.73 120.34-25.73ZM120.34-3.13L120.34-3.13Q124.09-3.13 125.94-5.64 127.79-8.15 127.79-12.65L127.79-12.65Q127.79-17.18 125.94-19.7 124.09-22.23 120.34-22.23L120.34-22.23Q118.44-22.23 117.04-21.58 115.64-20.93 114.7-19.7 113.77-18.48 113.3-16.69 112.84-14.9 112.84-12.65L112.84-12.65Q112.84-10.4 113.3-8.63 113.77-6.85 114.7-5.64 115.64-4.42 117.04-3.78 118.44-3.13 120.34-3.13ZM142.34 0L137.89 0 137.89-25.33 140.54-25.33Q141.49-25.33 141.74-24.4L141.74-24.4 142.09-21.65Q143.74-23.48 145.78-24.6 147.81-25.73 150.49-25.73L150.49-25.73Q152.56-25.73 154.15-25.04 155.74-24.35 156.8-23.09 157.86-21.83 158.41-20.05 158.96-18.28 158.96-16.13L158.96-16.13 158.96 0 154.51 0 154.51-16.13Q154.51-19 153.2-20.59 151.89-22.18 149.19-22.18L149.19-22.18Q147.21-22.18 145.5-21.23 143.79-20.28 142.34-18.65L142.34-18.65 142.34 0ZM184.29-16.2L184.29 0 182.31 0Q181.66 0 181.26-0.2 180.86-0.4 180.74-1.05L180.74-1.05 180.24-3.4Q179.24-2.5 178.29-1.79 177.34-1.07 176.29-0.59 175.24-0.1 174.05 0.15 172.86 0.4 171.41 0.4L171.41 0.4Q169.94 0.4 168.65-0.01 167.36-0.43 166.41-1.25 165.46-2.08 164.9-3.34 164.34-4.6 164.34-6.33L164.34-6.33Q164.34-7.83 165.16-9.21 165.99-10.6 167.82-11.68 169.66-12.75 172.64-13.44 175.61-14.13 179.91-14.23L179.91-14.23 179.91-16.2Q179.91-19.15 178.65-20.66 177.39-22.18 174.91-22.18L174.91-22.18Q173.29-22.18 172.17-21.76 171.06-21.35 170.25-20.84 169.44-20.33 168.85-19.91 168.26-19.5 167.69-19.5L167.69-19.5Q167.24-19.5 166.9-19.74 166.56-19.98 166.36-20.33L166.36-20.33 165.56-21.75Q167.66-23.78 170.09-24.78 172.51-25.78 175.46-25.78L175.46-25.78Q177.59-25.78 179.24-25.08 180.89-24.38 182.01-23.13 183.14-21.88 183.71-20.1 184.29-18.32 184.29-16.2L184.29-16.2ZM172.74-2.73L172.74-2.73Q173.91-2.73 174.89-2.96 175.86-3.2 176.72-3.64 177.59-4.08 178.37-4.7 179.16-5.33 179.91-6.13L179.91-6.13 179.91-11.4Q176.84-11.3 174.69-10.91 172.54-10.53 171.19-9.9 169.84-9.28 169.22-8.43 168.61-7.58 168.61-6.53L168.61-6.53Q168.61-5.53 168.94-4.8 169.26-4.08 169.81-3.61 170.36-3.15 171.11-2.94 171.86-2.73 172.74-2.73Z" opacity="1" transform="matrix(1,0,0,1,0,0)" fill="#50a060" class="wordmark-text-0" data-fill-palette-color="primary" id="text-0"></path></svg></g></svg></g></svg></g></svg></g><g transform="matrix(1,0,0,1,70.05117962719112,0)"><svg viewBox="0 0 51.89764074561776 65.46970602945264" height="65.46970602945264" width="51.89764074561776"><g><svg xmlns="http://www.w3.org/2000/svg" xmlns:xlink="http://www.w3.org/1999/xlink" version="1.1" x="8" y="0" viewBox="2 5.1910000000000025 227 414" enable-background="new 0 0 232.027 424.191" xml:space="preserve" height="65.46970602945264" width="35.89764074561776" class="icon-icon-0" data-fill-palette-color="accent" id="icon-0"><g fill="#50a060" data-fill-palette-color="accent"><path d="M185.717 97.191c0.099 0 0.188 0.007 0.283 0.007V52.191c0-25.958-21.043-47-47-47H93c-25.958 0-47 21.042-47 47v45.007c0.099 0 0.188-0.007 0.283-0.007H185.717z" fill="#50a060" data-fill-palette-color="accent"></path><path d="M46.283 337.191c-0.095 0-0.188-0.008-0.283-0.008v35.008c0 25.957 21.042 47 47 47h46c25.957 0 47-21.043 47-47v-35.008c-0.095 0-0.188 0.008-0.283 0.008H46.283z" fill="#50a060" data-fill-palette-color="accent"></path><path d="M185.217 104.191H45.783C21.603 104.191 2 123.793 2 147.974v138.434c0 24.181 19.604 43.783 43.783 43.783h139.434c24.185 0 43.783-19.604 43.783-43.783V147.974C229 123.793 209.397 104.191 185.217 104.191zM115.608 301.992c-49.259 0-89.192-39.934-89.192-89.192 0-49.258 39.937-89.192 89.192-89.192S204.8 163.541 204.8 212.8C204.801 262.059 164.867 301.992 115.608 301.992z" fill="#50a060" data-fill-palette-color="accent"></path><path d="M123 198.193v-47.466c0-4.408-3.847-7.042-7.5-7.042-3.649 0-7.5 2.634-7.5 7.042v47.571c2.276-1.199 4.862-1.886 7.608-1.886C118.27 196.412 120.776 197.063 123 198.193z" fill="#50a060" data-fill-palette-color="accent"></path><path d="M101.407 220.941l-21.311 28.232c-2.528 3.611-1.267 7.717 1.729 9.812 2.993 2.095 7.28 1.881 9.808-1.73l21.359-28.298C108.036 228.158 103.822 225.137 101.407 220.941z" fill="#50a060" data-fill-palette-color="accent"></path><circle cx="115.608" cy="212.8" r="11" fill="#50a060" data-fill-palette-color="accent"></circle></g></svg></g></svg></g><g><rect width="70.05117962719112" height="4.272160386738539" y="60.197545642714104" x="121.94882037280888" fill="#50a060" data-fill-palette-color="accent"></rect><rect width="70.05117962719112" height="4.272160386738539" y="60.197545642714104" x="0" fill="#50a060" data-fill-palette-color="accent"></rect><rect width="70.05117962719112" height="4.272160386738539" y="51.65322486923702" x="121.94882037280888" fill="#50a060" data-fill-palette-color="accent"></rect><rect width="70.05117962719112" height="4.272160386738539" y="51.65322486923702" x="0" fill="#50a060" data-fill-palette-color="accent"></rect></g></svg></g></svg></g></svg></g><defs></defs></svg><rect width="320" height="360" fill="none" stroke="none" visibility="hidden"></rect></g></svg></g></svg>